<mxfile host="app.diagrams.net" agent="Mozilla/5.0 (Windows NT 10.0; Win64; x64) AppleWebKit/537.36 (KHTML, like Gecko) Chrome/130.0.0.0 Safari/537.36" version="24.8.3">
  <diagram name="Page-1" id="W31CKUZAoh0pLtINRn7a">
    <mxGraphModel dx="1050" dy="957" grid="0" gridSize="10" guides="1" tooltips="1" connect="1" arrows="1" fold="1" page="0" pageScale="1" pageWidth="850" pageHeight="1100" math="0" shadow="0">
      <root>
        <mxCell id="0" />
        <mxCell id="1" parent="0" />
        <mxCell id="nrZpc6J21zGiSXzu8fo5-1" style="edgeStyle=orthogonalEdgeStyle;rounded=0;orthogonalLoop=1;jettySize=auto;html=1;exitX=0.5;exitY=1;exitDx=0;exitDy=0;" parent="1" source="nrZpc6J21zGiSXzu8fo5-2" target="nrZpc6J21zGiSXzu8fo5-4" edge="1">
          <mxGeometry relative="1" as="geometry" />
        </mxCell>
        <mxCell id="nrZpc6J21zGiSXzu8fo5-2" value="SETUP" style="rounded=0;whiteSpace=wrap;html=1;" parent="1" vertex="1">
          <mxGeometry x="360" y="20" width="120" height="60" as="geometry" />
        </mxCell>
        <mxCell id="nrZpc6J21zGiSXzu8fo5-3" style="edgeStyle=orthogonalEdgeStyle;rounded=0;orthogonalLoop=1;jettySize=auto;html=1;exitX=0.5;exitY=1;exitDx=0;exitDy=0;entryX=0.5;entryY=0;entryDx=0;entryDy=0;" parent="1" source="nrZpc6J21zGiSXzu8fo5-4" target="nrZpc6J21zGiSXzu8fo5-20" edge="1">
          <mxGeometry relative="1" as="geometry" />
        </mxCell>
        <mxCell id="nrZpc6J21zGiSXzu8fo5-4" value="LOOP" style="rounded=0;whiteSpace=wrap;html=1;" parent="1" vertex="1">
          <mxGeometry x="360" y="90" width="120" height="60" as="geometry" />
        </mxCell>
        <mxCell id="nrZpc6J21zGiSXzu8fo5-5" style="edgeStyle=orthogonalEdgeStyle;rounded=0;orthogonalLoop=1;jettySize=auto;html=1;exitX=0.5;exitY=1;exitDx=0;exitDy=0;entryX=0.5;entryY=0;entryDx=0;entryDy=0;" parent="1" source="nrZpc6J21zGiSXzu8fo5-6" target="nrZpc6J21zGiSXzu8fo5-13" edge="1">
          <mxGeometry relative="1" as="geometry" />
        </mxCell>
        <mxCell id="nrZpc6J21zGiSXzu8fo5-6" value="BACA KARTU KTP" style="rounded=0;whiteSpace=wrap;html=1;" parent="1" vertex="1">
          <mxGeometry x="350" y="360" width="120" height="60" as="geometry" />
        </mxCell>
        <mxCell id="nrZpc6J21zGiSXzu8fo5-7" style="edgeStyle=none;curved=1;rounded=0;orthogonalLoop=1;jettySize=auto;html=1;exitX=0;exitY=1;exitDx=0;exitDy=0;fontSize=12;startSize=8;endSize=8;entryX=0.5;entryY=0;entryDx=0;entryDy=0;" parent="1" source="nrZpc6J21zGiSXzu8fo5-9" target="nrZpc6J21zGiSXzu8fo5-11" edge="1">
          <mxGeometry relative="1" as="geometry">
            <mxPoint x="284" y="715" as="targetPoint" />
            <Array as="points">
              <mxPoint x="303" y="715" />
            </Array>
          </mxGeometry>
        </mxCell>
        <mxCell id="nrZpc6J21zGiSXzu8fo5-8" style="edgeStyle=none;curved=1;rounded=0;orthogonalLoop=1;jettySize=auto;html=1;exitX=1;exitY=1;exitDx=0;exitDy=0;entryX=0.25;entryY=0;entryDx=0;entryDy=0;fontSize=12;startSize=8;endSize=8;" parent="1" source="nrZpc6J21zGiSXzu8fo5-9" target="nrZpc6J21zGiSXzu8fo5-36" edge="1">
          <mxGeometry relative="1" as="geometry">
            <Array as="points">
              <mxPoint x="487" y="725" />
            </Array>
          </mxGeometry>
        </mxCell>
        <mxCell id="nrZpc6J21zGiSXzu8fo5-9" value="CHECK AKSES&lt;div&gt;UID DIIZINKAN?&lt;/div&gt;" style="rhombus;whiteSpace=wrap;html=1;" parent="1" vertex="1">
          <mxGeometry x="337" y="647" width="115" height="90" as="geometry" />
        </mxCell>
        <mxCell id="nrZpc6J21zGiSXzu8fo5-10" style="edgeStyle=orthogonalEdgeStyle;rounded=0;orthogonalLoop=1;jettySize=auto;html=1;exitX=0.5;exitY=1;exitDx=0;exitDy=0;entryX=0.5;entryY=0;entryDx=0;entryDy=0;" parent="1" source="nrZpc6J21zGiSXzu8fo5-11" target="nrZpc6J21zGiSXzu8fo5-16" edge="1">
          <mxGeometry relative="1" as="geometry" />
        </mxCell>
        <mxCell id="nrZpc6J21zGiSXzu8fo5-11" value="YES&lt;br&gt;(ALLOW ACCESS)&lt;div&gt;&lt;br&gt;&lt;/div&gt;" style="rounded=0;whiteSpace=wrap;html=1;" parent="1" vertex="1">
          <mxGeometry x="235" y="764" width="120" height="60" as="geometry" />
        </mxCell>
        <mxCell id="nrZpc6J21zGiSXzu8fo5-12" value="END" style="ellipse;whiteSpace=wrap;html=1;" parent="1" vertex="1">
          <mxGeometry x="350" y="1030" width="120" height="80" as="geometry" />
        </mxCell>
        <mxCell id="nrZpc6J21zGiSXzu8fo5-13" value="KARTU TERBACA?" style="rounded=0;whiteSpace=wrap;html=1;" parent="1" vertex="1">
          <mxGeometry x="350" y="470" width="120" height="60" as="geometry" />
        </mxCell>
        <mxCell id="nrZpc6J21zGiSXzu8fo5-14" style="edgeStyle=orthogonalEdgeStyle;rounded=0;orthogonalLoop=1;jettySize=auto;html=1;exitX=0.5;exitY=1;exitDx=0;exitDy=0;entryX=0.5;entryY=0;entryDx=0;entryDy=0;" parent="1" source="nrZpc6J21zGiSXzu8fo5-16" edge="1">
          <mxGeometry relative="1" as="geometry">
            <mxPoint x="410" y="1030" as="targetPoint" />
          </mxGeometry>
        </mxCell>
        <mxCell id="nrZpc6J21zGiSXzu8fo5-15" style="edgeStyle=orthogonalEdgeStyle;rounded=0;orthogonalLoop=1;jettySize=auto;html=1;exitX=0;exitY=0.5;exitDx=0;exitDy=0;" parent="1" source="nrZpc6J21zGiSXzu8fo5-16" edge="1">
          <mxGeometry relative="1" as="geometry">
            <mxPoint x="360" y="140" as="targetPoint" />
            <Array as="points">
              <mxPoint x="110" y="970" />
              <mxPoint x="110" y="140" />
              <mxPoint x="230" y="140" />
            </Array>
          </mxGeometry>
        </mxCell>
        <mxCell id="nrZpc6J21zGiSXzu8fo5-16" value="DELAY" style="rounded=0;whiteSpace=wrap;html=1;" parent="1" vertex="1">
          <mxGeometry x="350" y="940" width="120" height="60" as="geometry" />
        </mxCell>
        <mxCell id="nrZpc6J21zGiSXzu8fo5-17" style="edgeStyle=orthogonalEdgeStyle;rounded=0;orthogonalLoop=1;jettySize=auto;html=1;exitX=0.5;exitY=1;exitDx=0;exitDy=0;" parent="1" source="nrZpc6J21zGiSXzu8fo5-18" target="nrZpc6J21zGiSXzu8fo5-2" edge="1">
          <mxGeometry relative="1" as="geometry" />
        </mxCell>
        <mxCell id="nrZpc6J21zGiSXzu8fo5-18" value="START" style="ellipse;whiteSpace=wrap;html=1;" parent="1" vertex="1">
          <mxGeometry x="360" y="-110" width="120" height="90" as="geometry" />
        </mxCell>
        <mxCell id="nrZpc6J21zGiSXzu8fo5-19" style="edgeStyle=orthogonalEdgeStyle;rounded=0;orthogonalLoop=1;jettySize=auto;html=1;exitX=0.5;exitY=1;exitDx=0;exitDy=0;entryX=0.5;entryY=0;entryDx=0;entryDy=0;" parent="1" source="nrZpc6J21zGiSXzu8fo5-20" target="nrZpc6J21zGiSXzu8fo5-24" edge="1">
          <mxGeometry relative="1" as="geometry" />
        </mxCell>
        <mxCell id="nrZpc6J21zGiSXzu8fo5-20" value="APAKAH ADA&amp;nbsp;&lt;div&gt;KARTU KTP&lt;/div&gt;" style="rhombus;whiteSpace=wrap;html=1;" parent="1" vertex="1">
          <mxGeometry x="350" y="180" width="120" height="90" as="geometry" />
        </mxCell>
        <mxCell id="nrZpc6J21zGiSXzu8fo5-21" style="edgeStyle=orthogonalEdgeStyle;rounded=0;orthogonalLoop=1;jettySize=auto;html=1;exitX=1;exitY=0.75;exitDx=0;exitDy=0;entryX=1;entryY=0.25;entryDx=0;entryDy=0;" parent="1" source="nrZpc6J21zGiSXzu8fo5-2" target="nrZpc6J21zGiSXzu8fo5-2" edge="1">
          <mxGeometry relative="1" as="geometry" />
        </mxCell>
        <mxCell id="nrZpc6J21zGiSXzu8fo5-22" style="edgeStyle=orthogonalEdgeStyle;rounded=0;orthogonalLoop=1;jettySize=auto;html=1;exitX=0.5;exitY=1;exitDx=0;exitDy=0;entryX=0.5;entryY=0;entryDx=0;entryDy=0;" parent="1" source="nrZpc6J21zGiSXzu8fo5-24" target="nrZpc6J21zGiSXzu8fo5-6" edge="1">
          <mxGeometry relative="1" as="geometry" />
        </mxCell>
        <mxCell id="nrZpc6J21zGiSXzu8fo5-23" style="edgeStyle=orthogonalEdgeStyle;rounded=0;orthogonalLoop=1;jettySize=auto;html=1;exitX=0;exitY=0.5;exitDx=0;exitDy=0;entryX=0;entryY=0.5;entryDx=0;entryDy=0;" parent="1" source="nrZpc6J21zGiSXzu8fo5-24" target="nrZpc6J21zGiSXzu8fo5-4" edge="1">
          <mxGeometry relative="1" as="geometry">
            <mxPoint x="320" y="140" as="targetPoint" />
          </mxGeometry>
        </mxCell>
        <mxCell id="nrZpc6J21zGiSXzu8fo5-24" value="YES/NO" style="rounded=0;whiteSpace=wrap;html=1;" parent="1" vertex="1">
          <mxGeometry x="350" y="280" width="120" height="60" as="geometry" />
        </mxCell>
        <mxCell id="nrZpc6J21zGiSXzu8fo5-25" style="edgeStyle=none;curved=1;rounded=0;orthogonalLoop=1;jettySize=auto;html=1;exitX=0;exitY=0.5;exitDx=0;exitDy=0;entryX=0.5;entryY=0;entryDx=0;entryDy=0;fontSize=12;startSize=8;endSize=8;" parent="1" source="nrZpc6J21zGiSXzu8fo5-27" target="nrZpc6J21zGiSXzu8fo5-29" edge="1">
          <mxGeometry relative="1" as="geometry">
            <Array as="points">
              <mxPoint x="320" y="529" />
            </Array>
          </mxGeometry>
        </mxCell>
        <mxCell id="nrZpc6J21zGiSXzu8fo5-26" style="edgeStyle=none;curved=1;rounded=0;orthogonalLoop=1;jettySize=auto;html=1;exitX=1;exitY=0.5;exitDx=0;exitDy=0;entryX=0.25;entryY=0;entryDx=0;entryDy=0;fontSize=12;startSize=8;endSize=8;" parent="1" source="nrZpc6J21zGiSXzu8fo5-27" target="nrZpc6J21zGiSXzu8fo5-31" edge="1">
          <mxGeometry relative="1" as="geometry">
            <Array as="points">
              <mxPoint x="498" y="537" />
            </Array>
          </mxGeometry>
        </mxCell>
        <mxCell id="nrZpc6J21zGiSXzu8fo5-27" value="KARTU TERBACA?&lt;div&gt;TAMPILKAN PADA SERIAL MONITOR&lt;/div&gt;" style="rounded=0;whiteSpace=wrap;html=1;" parent="1" vertex="1">
          <mxGeometry x="350" y="470" width="120" height="60" as="geometry" />
        </mxCell>
        <mxCell id="nrZpc6J21zGiSXzu8fo5-28" style="edgeStyle=orthogonalEdgeStyle;rounded=0;orthogonalLoop=1;jettySize=auto;html=1;exitX=0;exitY=0.5;exitDx=0;exitDy=0;entryX=0;entryY=1;entryDx=0;entryDy=0;" parent="1" source="nrZpc6J21zGiSXzu8fo5-29" target="nrZpc6J21zGiSXzu8fo5-4" edge="1">
          <mxGeometry relative="1" as="geometry">
            <mxPoint x="340" y="130" as="targetPoint" />
            <mxPoint x="240" y="585" as="sourcePoint" />
            <Array as="points">
              <mxPoint x="260" y="585" />
              <mxPoint x="150" y="585" />
              <mxPoint x="150" y="150" />
            </Array>
          </mxGeometry>
        </mxCell>
        <mxCell id="nrZpc6J21zGiSXzu8fo5-29" value="NO" style="rounded=0;whiteSpace=wrap;html=1;" parent="1" vertex="1">
          <mxGeometry x="260" y="560" width="120" height="60" as="geometry" />
        </mxCell>
        <mxCell id="nrZpc6J21zGiSXzu8fo5-30" style="edgeStyle=orthogonalEdgeStyle;rounded=0;orthogonalLoop=1;jettySize=auto;html=1;exitX=0.5;exitY=1;exitDx=0;exitDy=0;" parent="1" source="nrZpc6J21zGiSXzu8fo5-31" edge="1">
          <mxGeometry relative="1" as="geometry">
            <mxPoint x="529.6666666666667" y="660" as="targetPoint" />
          </mxGeometry>
        </mxCell>
        <mxCell id="nrZpc6J21zGiSXzu8fo5-31" value="YES" style="rounded=0;whiteSpace=wrap;html=1;" parent="1" vertex="1">
          <mxGeometry x="470" y="560" width="120" height="60" as="geometry" />
        </mxCell>
        <mxCell id="nrZpc6J21zGiSXzu8fo5-32" style="edgeStyle=orthogonalEdgeStyle;rounded=0;orthogonalLoop=1;jettySize=auto;html=1;exitX=0;exitY=0.5;exitDx=0;exitDy=0;entryX=1;entryY=0.5;entryDx=0;entryDy=0;" parent="1" source="nrZpc6J21zGiSXzu8fo5-33" target="nrZpc6J21zGiSXzu8fo5-9" edge="1">
          <mxGeometry relative="1" as="geometry" />
        </mxCell>
        <mxCell id="nrZpc6J21zGiSXzu8fo5-33" value="BACA UID KARTU" style="rounded=0;whiteSpace=wrap;html=1;" parent="1" vertex="1">
          <mxGeometry x="480" y="665" width="120" height="60" as="geometry" />
        </mxCell>
        <mxCell id="nrZpc6J21zGiSXzu8fo5-34" value="" style="endArrow=classic;startArrow=classic;html=1;rounded=0;entryX=0;entryY=0.5;entryDx=0;entryDy=0;exitX=1;exitY=0.5;exitDx=0;exitDy=0;" parent="1" source="nrZpc6J21zGiSXzu8fo5-29" target="nrZpc6J21zGiSXzu8fo5-31" edge="1">
          <mxGeometry width="50" height="50" relative="1" as="geometry">
            <mxPoint x="370" y="600" as="sourcePoint" />
            <mxPoint x="560" y="540" as="targetPoint" />
            <Array as="points">
              <mxPoint x="430" y="590" />
            </Array>
          </mxGeometry>
        </mxCell>
        <mxCell id="nrZpc6J21zGiSXzu8fo5-35" style="edgeStyle=orthogonalEdgeStyle;rounded=0;orthogonalLoop=1;jettySize=auto;html=1;exitX=0.5;exitY=1;exitDx=0;exitDy=0;" parent="1" source="nrZpc6J21zGiSXzu8fo5-36" target="nrZpc6J21zGiSXzu8fo5-16" edge="1">
          <mxGeometry relative="1" as="geometry" />
        </mxCell>
        <mxCell id="nrZpc6J21zGiSXzu8fo5-36" value="NO&lt;br&gt;(DENY ACCESSS)&lt;div&gt;&lt;br&gt;&lt;/div&gt;" style="rounded=0;whiteSpace=wrap;html=1;" parent="1" vertex="1">
          <mxGeometry x="452" y="764" width="120" height="60" as="geometry" />
        </mxCell>
      </root>
    </mxGraphModel>
  </diagram>
</mxfile>
